PathFileType	4	(X/Y/Z)	 2.2Hz3min.trc
DataRate	CameraRate	NumFrames	NumMarkers	Units	OrigDataRate	OrigDataStartFrame	OrigNumFrames
200	200	10	39	m	200	251	1000
Frame#	Time	C7			LSH			RSH			MAN			RASI			LASI			HIPR			HIPL			RPSI			LPSI			COX			RTHI1			RTHI2			RTHI3			RTHI4			RLKN			RMKN			RSHA1			RSHA2			RSHA3			RSHA4			RHEEL			RMET5			RMET1			RTOE			LTHI1			LTHI2			LTHI3			LTHI4			LLKN			LMKN			LSHA1			LSHA2			LSHA3			LSHA4			LHEEL			LMET5			LMET1			LTOE			
		X1	Y1	Z1	X2	Y2	Z2	X3	Y3	Z3	X4	Y4	Z4	X5	Y5	Z5	X6	Y6	Z6	X7	Y7	Z7	X8	Y8	Z8	X9	Y9	Z9	X10	Y10	Z10	X11	Y11	Z11	X12	Y12	Z12	X13	Y13	Z13	X14	Y14	Z14	X15	Y15	Z15	X16	Y16	Z16	X17	Y17	Z17	X18	Y18	Z18	X19	Y19	Z19	X20	Y20	Z20	X21	Y21	Z21	X22	Y22	Z22	X23	Y23	Z23	X24	Y24	Z24	X25	Y25	Z25	X26	Y26	Z26	X27	Y27	Z27	X28	Y28	Z28	X29	Y29	Z29	X30	Y30	Z30	X31	Y31	Z31	X32	Y32	Z32	X33	Y33	Z33	X34	Y34	Z34	X35	Y35	Z35	X36	Y36	Z36	X37	Y37	Z37	X38	Y38	Z38	X39	Y39	Z39	
251	1.2550	-0.272371	1.692759	-0.576568	-0.227272	1.668403	-0.811815	-0.223080	1.662154	-0.370929	-0.133192	1.628945	-0.586203	-0.133226	1.163898	-0.471373	-0.131797	1.175064	-0.705327	-0.197309	1.229542	-0.425259	-0.198305	1.245229	-0.747266	-0.311617	1.208699	-0.528131	-0.311255	1.213341	-0.641992	-0.320064	1.209856	-0.586401	-0.216468	0.930131	-0.387753	-0.205206	0.872631	-0.377484	-0.140843	0.882464	-0.380766	-0.145200	0.942817	-0.392551	-0.186844	0.580542	-0.399019	-0.164316	0.570230	-0.503520	-0.267676	0.455579	-0.363477	-0.285150	0.416077	-0.369020	-0.215694	0.437862	-0.379292	-0.227853	0.399552	-0.380928	-0.380501	0.134969	-0.444668	-0.228030	0.039721	-0.374134	-0.184406	0.049578	-0.453710	-0.153667	0.039110	-0.445518	-0.205416	0.912351	-0.789141	-0.188566	0.854325	-0.797595	-0.124799	0.867223	-0.798516	-0.133500	0.926330	-0.791531	-0.159179	0.586214	-0.771712	-0.136061	0.577219	-0.675141	-0.287018	0.437941	-0.793324	-0.297844	0.399262	-0.789213	-0.237818	0.387450	-0.803554	-0.234867	0.431412	-0.806466	-0.365641	0.135977	-0.743526	-0.213800	0.039931	-0.801976	-0.168641	0.044894	-0.727744	-0.131331	0.033661	-0.739534	
252	1.2600	-0.272047	1.694042	-0.576594	-0.227231	1.670041	-0.811518	-0.222974	1.663661	-0.371223	-0.133047	1.630283	-0.586267	-0.133330	1.165497	-0.471392	-0.131998	1.176365	-0.705323	-0.197365	1.231361	-0.425457	-0.198390	1.246634	-0.747231	-0.311713	1.210385	-0.528212	-0.311415	1.214898	-0.642109	-0.320130	1.211520	-0.586483	-0.216576	0.931429	-0.388074	-0.205310	0.873960	-0.377813	-0.140958	0.883804	-0.381005	-0.145302	0.944150	-0.392770	-0.186686	0.581677	-0.399050	-0.164087	0.571456	-0.503480	-0.267439	0.456593	-0.363494	-0.284898	0.417088	-0.369088	-0.215474	0.438884	-0.379466	-0.227604	0.400601	-0.381042	-0.380359	0.136093	-0.444914	-0.228023	0.040857	-0.374716	-0.184557	0.050686	-0.454128	-0.153834	0.040448	-0.445838	-0.205423	0.913495	-0.788987	-0.188543	0.855441	-0.797274	-0.124776	0.868336	-0.797978	-0.133501	0.927464	-0.791144	-0.159013	0.587276	-0.771447	-0.136334	0.578366	-0.674769	-0.286666	0.438816	-0.793441	-0.297472	0.400135	-0.789331	-0.237389	0.388358	-0.803453	-0.234460	0.432330	-0.806394	-0.365407	0.136759	-0.743760	-0.213247	0.041114	-0.801225	-0.168780	0.045799	-0.726938	-0.131348	0.034954	-0.738921	
253	1.2650	-0.271714	1.695073	-0.576624	-0.227170	1.671388	-0.811244	-0.222828	1.664881	-0.371505	-0.132873	1.631326	-0.586338	-0.133455	1.166837	-0.471415	-0.132205	1.177419	-0.705320	-0.197431	1.232889	-0.425653	-0.198477	1.247771	-0.747210	-0.311850	1.211722	-0.528282	-0.311603	1.216118	-0.642204	-0.320230	1.212819	-0.586556	-0.216687	0.932480	-0.388454	-0.205403	0.875032	-0.378160	-0.141055	0.884916	-0.381227	-0.145402	0.945251	-0.392986	-0.186392	0.582572	-0.399057	-0.163688	0.572432	-0.503383	-0.267176	0.457419	-0.363516	-0.284655	0.417912	-0.369168	-0.215231	0.439685	-0.379584	-0.227386	0.401437	-0.381167	-0.380347	0.137004	-0.445154	-0.228013	0.041918	-0.375266	-0.184694	0.051797	-0.454598	-0.153967	0.041767	-0.446280	-0.205411	0.914370	-0.788884	-0.188475	0.856300	-0.797006	-0.124709	0.869224	-0.797487	-0.133482	0.928362	-0.790802	-0.158777	0.588120	-0.771191	-0.136518	0.579280	-0.674440	-0.286363	0.439537	-0.793516	-0.297168	0.400853	-0.789416	-0.237048	0.389083	-0.803351	-0.234111	0.433059	-0.806313	-0.365332	0.137311	-0.743985	-0.212666	0.042269	-0.800500	-0.168854	0.046882	-0.726087	-0.131261	0.036406	-0.738117	
254	1.2700	-0.271377	1.695846	-0.576659	-0.227090	1.672445	-0.810997	-0.222644	1.665815	-0.371769	-0.132675	1.632085	-0.586414	-0.133605	1.167891	-0.471441	-0.132415	1.178214	-0.705322	-0.197548	1.234093	-0.425838	-0.198575	1.248644	-0.747197	-0.312019	1.212701	-0.528342	-0.311804	1.216982	-0.642271	-0.320349	1.213742	-0.586606	-0.216795	0.933281	-0.388840	-0.205480	0.875849	-0.378504	-0.141137	0.885785	-0.381425	-0.145504	0.946109	-0.393188	-0.186017	0.583235	-0.399062	-0.163147	0.573169	-0.503236	-0.266899	0.458061	-0.363546	-0.284423	0.418563	-0.369254	-0.214971	0.440284	-0.379662	-0.227187	0.402051	-0.381294	-0.380448	0.137706	-0.445414	-0.228003	0.042889	-0.375797	-0.184829	0.052868	-0.455111	-0.154072	0.043017	-0.446814	-0.205382	0.914981	-0.788833	-0.188367	0.856903	-0.796791	-0.124607	0.869883	-0.797052	-0.133445	0.929029	-0.790514	-0.158486	0.588743	-0.770941	-0.136607	0.579963	-0.674153	-0.286107	0.440109	-0.793552	-0.296933	0.401426	-0.789466	-0.236790	0.389639	-0.803246	-0.233823	0.433613	-0.806222	-0.365397	0.137627	-0.744186	-0.212064	0.043366	-0.799786	-0.168837	0.048118	-0.725222	-0.131055	0.037976	-0.737172	
255	1.2750	-0.271042	1.696366	-0.576701	-0.226987	1.673210	-0.810780	-0.222423	1.666461	-0.372013	-0.132455	1.632558	-0.586488	-0.133785	1.168633	-0.471470	-0.132634	1.178748	-0.705332	-0.197714	1.234959	-0.426008	-0.198697	1.249254	-0.747190	-0.312215	1.213335	-0.528394	-0.312018	1.217514	-0.642316	-0.320492	1.214316	-0.586645	-0.216897	0.933819	-0.389196	-0.205541	0.876395	-0.378814	-0.141201	0.886413	-0.381587	-0.145609	0.946724	-0.393366	-0.185570	0.583672	-0.399039	-0.162501	0.573658	-0.503062	-0.266604	0.458531	-0.363579	-0.284203	0.419044	-0.369346	-0.214708	0.440676	-0.379742	-0.227007	0.402453	-0.381424	-0.380635	0.138197	-0.445693	-0.228018	0.043738	-0.376298	-0.184960	0.053838	-0.455644	-0.154163	0.044138	-0.447396	-0.205338	0.915332	-0.788839	-0.188223	0.857256	-0.796634	-0.124474	0.870317	-0.796694	-0.133396	0.929462	-0.790301	-0.158147	0.589148	-0.770698	-0.136604	0.580426	-0.673899	-0.285897	0.440525	-0.793556	-0.296764	0.401850	-0.789488	-0.236603	0.390022	-0.803139	-0.233590	0.433980	-0.806126	-0.365577	0.137712	-0.744339	-0.211462	0.044378	-0.799075	-0.168730	0.049431	-0.724356	-0.130748	0.039602	-0.736143	
256	1.2800	-0.270707	1.696633	-0.576751	-0.226866	1.673676	-0.810601	-0.222168	1.666818	-0.372229	-0.132231	1.632752	-0.586560	-0.134002	1.169047	-0.471498	-0.132868	1.179014	-0.705353	-0.197932	1.235475	-0.426146	-0.198852	1.249599	-0.747186	-0.312434	1.213628	-0.528439	-0.312242	1.217719	-0.642348	-0.320662	1.214558	-0.586672	-0.217003	0.934085	-0.389515	-0.205582	0.876668	-0.379072	-0.141250	0.886788	-0.381708	-0.145718	0.947085	-0.393506	-0.185065	0.583891	-0.399006	-0.161760	0.573918	-0.502871	-0.266293	0.458818	-0.363616	-0.283986	0.419358	-0.369448	-0.214442	0.440863	-0.379818	-0.226831	0.402658	-0.381555	-0.380885	0.138502	-0.446002	-0.228068	0.044427	-0.376784	-0.185102	0.054652	-0.456160	-0.154250	0.045078	-0.447984	-0.205283	0.915429	-0.788902	-0.188054	0.857362	-0.796534	-0.124325	0.870517	-0.796420	-0.133347	0.929661	-0.790172	-0.157775	0.589337	-0.770459	-0.136537	0.580660	-0.673667	-0.285718	0.440773	-0.793533	-0.296644	0.402123	-0.789486	-0.236476	0.390211	-0.803024	-0.233396	0.434157	-0.806025	-0.365834	0.137575	-0.744410	-0.210898	0.045273	-0.798373	-0.168540	0.050736	-0.723533	-0.130366	0.041193	-0.735112	
257	1.2850	-0.270375	1.696646	-0.576812	-0.226726	1.673842	-0.810466	-0.221885	1.666884	-0.372416	-0.132002	1.632675	-0.586627	-0.134258	1.169130	-0.471528	-0.133122	1.179006	-0.705387	-0.198190	1.235628	-0.426254	-0.199045	1.249673	-0.747187	-0.312674	1.213590	-0.528484	-0.312473	1.217617	-0.642369	-0.320862	1.214483	-0.586690	-0.217091	0.934081	-0.389730	-0.205598	0.876672	-0.379266	-0.141279	0.886912	-0.381775	-0.145831	0.947193	-0.393599	-0.184503	0.583888	-0.398955	-0.160952	0.573943	-0.502677	-0.265968	0.458918	-0.363663	-0.283764	0.419489	-0.369562	-0.214166	0.440849	-0.379895	-0.226656	0.402677	-0.381694	-0.381180	0.138644	-0.446362	-0.228191	0.044909	-0.377231	-0.185263	0.055249	-0.456634	-0.154356	0.045778	-0.448536	-0.205220	0.915281	-0.789017	-0.187872	0.857230	-0.796490	-0.124164	0.870495	-0.796240	-0.133298	0.929633	-0.790129	-0.157385	0.589303	-0.770227	-0.136415	0.580670	-0.673451	-0.285558	0.440849	-0.793491	-0.296559	0.402228	-0.789467	-0.236387	0.390210	-0.802900	-0.233227	0.434146	-0.805912	-0.366134	0.137241	-0.744370	-0.210423	0.045996	-0.797711	-0.168301	0.051918	-0.722798	-0.129956	0.042636	-0.734182	
258	1.2900	-0.270043	1.696409	-0.576880	-0.226563	1.673709	-0.810376	-0.221580	1.666664	-0.372569	-0.131764	1.632332	-0.586689	-0.134554	1.168894	-0.471563	-0.133402	1.178730	-0.705433	-0.198481	1.235418	-0.426327	-0.199275	1.249475	-0.747195	-0.312937	1.213236	-0.528530	-0.312711	1.217228	-0.642386	-0.321095	1.214103	-0.586704	-0.217169	0.933802	-0.389864	-0.205582	0.876407	-0.379390	-0.141287	0.886782	-0.381788	-0.145944	0.947049	-0.393638	-0.183929	0.583657	-0.398917	-0.160111	0.573734	-0.502489	-0.265626	0.458820	-0.363722	-0.283525	0.419445	-0.369684	-0.213877	0.440638	-0.379975	-0.226464	0.402503	-0.381832	-0.381492	0.138628	-0.446786	-0.228407	0.045155	-0.377634	-0.185453	0.055577	-0.457040	-0.154497	0.046171	-0.449003	-0.205153	0.914903	-0.789172	-0.187690	0.856871	-0.796500	-0.124004	0.870245	-0.796153	-0.133253	0.929384	-0.790167	-0.156993	0.589041	-0.770010	-0.136249	0.580455	-0.673245	-0.285401	0.440743	-0.793445	-0.296489	0.402156	-0.789433	-0.236310	0.390015	-0.802749	-0.233064	0.433943	-0.805782	-0.366452	0.136734	-0.744183	-0.210077	0.046473	-0.797105	-0.168026	0.052886	-0.722211	-0.129569	0.043826	-0.733447	
259	1.2950	-0.269710	1.695928	-0.576958	-0.226376	1.673274	-0.810331	-0.221259	1.666160	-0.372690	-0.131516	1.631725	-0.586747	-0.134888	1.168357	-0.471606	-0.133710	1.178190	-0.705489	-0.198795	1.234852	-0.426369	-0.199539	1.249002	-0.747217	-0.313225	1.212593	-0.528583	-0.312971	1.216593	-0.642412	-0.321388	1.213473	-0.586745	-0.217233	0.933248	-0.389925	-0.205533	0.875870	-0.379448	-0.141265	0.886403	-0.381746	-0.146048	0.946656	-0.393624	-0.183337	0.583198	-0.398896	-0.159254	0.573288	-0.502316	-0.265263	0.458520	-0.363796	-0.283261	0.419204	-0.369812	-0.213564	0.440224	-0.380056	-0.226251	0.402140	-0.381976	-0.381812	0.138473	-0.447269	-0.228727	0.045134	-0.377998	-0.185677	0.055597	-0.457364	-0.154687	0.046222	-0.449363	-0.205084	0.914306	-0.789354	-0.187516	0.856288	-0.796558	-0.123858	0.869767	-0.796153	-0.133221	0.928907	-0.790274	-0.156605	0.588564	-0.769808	-0.136056	0.580018	-0.673042	-0.285243	0.440437	-0.793402	-0.296421	0.401881	-0.789389	-0.236233	0.389606	-0.802567	-0.232894	0.433530	-0.805633	-0.366768	0.136084	-0.743848	-0.209906	0.046660	-0.796587	-0.167750	0.053550	-0.721811	-0.129257	0.044670	-0.732965	
260	1.3000	-0.269371	1.695205	-0.577047	-0.226169	1.672537	-0.810335	-0.220927	1.665375	-0.372777	-0.131256	1.630854	-0.586802	-0.135257	1.167543	-0.471654	-0.134044	1.177394	-0.705555	-0.199123	1.233948	-0.426382	-0.199826	1.248252	-0.747251	-0.313546	1.211667	-0.528647	-0.313248	1.215697	-0.642442	-0.321722	1.212566	-0.586794	-0.217279	0.932430	-0.389926	-0.205447	0.875072	-0.379453	-0.141208	0.885783	-0.381660	-0.146139	0.946022	-0.393561	-0.182712	0.582512	-0.398899	-0.158376	0.572636	-0.502162	-0.264874	0.458003	-0.363876	-0.282968	0.418761	-0.369949	-0.213217	0.439603	-0.380135	-0.226006	0.401570	-0.382125	-0.382134	0.138189	-0.447820	-0.229155	0.044840	-0.378330	-0.185948	0.055293	-0.457597	-0.154939	0.045905	-0.449609	-0.205023	0.913492	-0.789546	-0.187363	0.855492	-0.796657	-0.123735	0.869065	-0.796223	-0.133199	0.928207	-0.790425	-0.156225	0.587866	-0.769634	-0.135839	0.579359	-0.672848	-0.285076	0.439919	-0.793363	-0.296342	0.401388	-0.789334	-0.236145	0.388969	-0.802354	-0.232714	0.432902	-0.805465	-0.367080	0.135311	-0.743366	-0.209940	0.046535	-0.796178	-0.167498	0.053865	-0.721624	-0.129052	0.045100	-0.732774	
